<svg width="16" height="16" viewBox="0 0 16 16" fill="none" xmlns="http://www.w3.org/2000/svg">
  <path fill-rule="evenodd" clip-rule="evenodd" d="M8 0C6.34315 0 5 1.34315 5 3C5 4.65685 6.34315 6 8 6C9.65685 6 11 4.65685 11 3C11 1.34315 9.65685 0 8 0ZM6.85714 3C6.85714 2.14286 7.51429 1.42857 8.28571 1.42857C9.05714 1.42857 9.71429 2.14286 9.71429 3C9.71429 3.85714 9.05714 4.57143 8.28571 4.57143C7.51429 4.57143 6.85714 3.85714 6.85714 3ZM2.85714 13.4286C2.85714 11.2286 4.74286 9.42857 8 9.42857C11.2571 9.42857 13.1429 11.2286 13.1429 13.4286V14H2.85714V13.4286ZM12 13C11.5143 11.8286 10.4 10.8571 8 10.8571C5.6 10.8571 4.48571 11.8286 4 13H12Z" fill="#B9B9B9"/>
</svg>
